HIERARCHY
ROOT RootJoint
{
    OFFSET   0.000000   0.000000   0.000000
    CHANNELS 6 Xposition Yposition Zposition Xrotation Yrotation Zrotation
    JOINT pelvis_lowerback
    {
        OFFSET   0.000000   0.093605   0.000000
        CHANNELS 3 Xrotation Yrotation Zrotation
        JOINT lowerback_torso
        {
            OFFSET   0.000000   0.100000   0.000000
            CHANNELS 3 Xrotation Yrotation Zrotation
            JOINT torso_head
            {
                OFFSET   0.000000   0.282350   0.000000
                CHANNELS 3 Xrotation Yrotation Zrotation
                End Site
                {
                    OFFSET   0.000000   0.192650   0.000000
                }
            }
            JOINT rTorso_Clavicle
            {
                OFFSET  -0.001000   0.157500   0.000000
                CHANNELS 3 Xrotation Yrotation Zrotation
                JOINT rShoulder
                {
                    OFFSET  -0.117647   0.000000   0.000000
                    CHANNELS 3 Xrotation Yrotation Zrotation
                    JOINT rElbow
                    {
                        OFFSET  -0.245000   0.000000   0.000000
                        CHANNELS 3 Xrotation Yrotation Zrotation
                        JOINT rWrist
                        {
                            OFFSET  -0.240000   0.000000   0.000000
                            CHANNELS 3 Xrotation Yrotation Zrotation
                            End Site
                            {
                                OFFSET  -0.116353  -0.002500   0.000000
                            }
                        }
                    }
                }
            }
            JOINT lTorso_Clavicle
            {
                OFFSET   0.001000   0.157500   0.000000
                CHANNELS 3 Xrotation Yrotation Zrotation
                JOINT lShoulder
                {
                    OFFSET   0.117647   0.000000   0.000000
                    CHANNELS 3 Xrotation Yrotation Zrotation
                    JOINT lElbow
                    {
                        OFFSET   0.245000   0.000000   0.000000
                        CHANNELS 3 Xrotation Yrotation Zrotation
                        JOINT lWrist
                        {
                            OFFSET   0.240000   0.000000   0.000000
                            CHANNELS 3 Xrotation Yrotation Zrotation
                            End Site
                            {
                                OFFSET   0.116353  -0.002500   0.000000
                            }
                        }
                    }
                }
            }
        }
    }
    JOINT rHip
    {
        OFFSET  -0.100000  -0.051395   0.000000
        CHANNELS 3 Xrotation Yrotation Zrotation
        JOINT rKnee
        {
            OFFSET   0.000000  -0.410000   0.000000
            CHANNELS 3 Xrotation Yrotation Zrotation
            JOINT rAnkle
            {
                OFFSET   0.000000  -0.390000   0.000000
                CHANNELS 3 Xrotation Yrotation Zrotation
                JOINT rToeJoint
                {
                    OFFSET   0.000000  -0.050000   0.130000
                    CHANNELS 3 Xrotation Yrotation Zrotation
                    End Site
                    {
                        OFFSET  -0.010000   0.002000   0.060000
                    }
                }
            }
        }
    }
    JOINT lHip
    {
        OFFSET   0.100000  -0.051395   0.000000
        CHANNELS 3 Xrotation Yrotation Zrotation
        JOINT lKnee
        {
            OFFSET   0.000000  -0.410000   0.000000
            CHANNELS 3 Xrotation Yrotation Zrotation
            JOINT lAnkle
            {
                OFFSET   0.000000  -0.390000   0.000000
                CHANNELS 3 Xrotation Yrotation Zrotation
                JOINT lToeJoint
                {
                    OFFSET   0.000000  -0.050000   0.130000
                    CHANNELS 3 Xrotation Yrotation Zrotation
                    End Site
                    {
                        OFFSET   0.010000   0.002000   0.060000
                    }
                }
            }
        }
    }
}
MOTION
Frames: 5
Frame Time:   0.008333
 -2.569586   0.904279   4.274821 -167.592241 -35.180669 -174.771229   6.494905  -0.295895  -0.444155   5.450995  -2.202781   1.104999  -1.382208  -0.804293   0.483547   3.134537   7.472077  10.731892  12.756400  17.191481  48.415870  -0.000047  15.582924   0.000222  13.856839   3.057024 -21.439599   3.339494  -7.796323 -11.431393  13.276642 -21.987835 -48.529421   0.000046 -22.203015   0.000136  13.161884  -4.981236  24.860530   8.683082  -8.959290  -6.289333  14.287076  -0.000101  -0.000153 -10.364970  -8.886109   2.388148  -1.722682  -0.000163  -0.000310   5.195580   9.397606  13.138484  15.490049  -0.000021  -0.000026 -10.259664  12.903194   2.076284   2.016957  -0.000000   0.000000
 -2.570103   0.904329   4.274760 -167.562044 -35.298043 -174.710627   6.478738  -0.274566  -0.438758   5.433667  -2.196869   1.104575  -1.383754  -0.803862   0.466790   3.134435   7.465220  10.741753  12.765465  17.148586  48.454159  -0.000078  15.474660   0.000257  13.865116   3.068676 -21.423073   3.327359  -7.785792 -11.443919  13.251629 -21.947415 -48.568447   0.000067 -22.151913   0.000213  13.161928  -4.979824  24.864774   8.751767  -8.981924  -6.339557  14.254102  -0.000098  -0.000150 -10.335794  -8.889640   2.386593  -1.802864  -0.000162  -0.000319   5.233470   9.335525  13.081989  15.457135  -0.000027  -0.000035 -10.262045  12.850594   2.088876   2.013961  -0.000001   0.000000
 -2.570624   0.904378   4.274701 -167.531881 -35.418267 -174.647577   6.461750  -0.253695  -0.431219   5.418418  -2.191478   1.102888  -1.386038  -0.803030   0.450519   3.138386   7.456383  10.751983  12.777125  17.106025  48.491175  -0.000106  15.371012   0.000286  13.868312   3.066893 -21.399811   3.318711  -7.775087 -11.461269  13.229127 -21.909398 -48.609406   0.000077 -22.102838   0.000269  13.157069  -4.968906  24.863972   8.818536  -9.003379  -6.392163  14.225507  -0.000094  -0.000145 -10.309202  -8.894475   2.384351  -1.883842  -0.000163  -0.000329   5.270553   9.273077  13.023591  15.423923  -0.000032  -0.000042 -10.263661  12.795165   2.099220   2.010438  -0.000001   0.000000
 -2.571137   0.904424   4.274644 -167.502594 -35.536893 -174.585540   6.445449  -0.232855  -0.422126   5.405197  -2.185610   1.101757  -1.388596  -0.802102   0.435582   3.143888   7.446855  10.762237  12.789321  17.065346  48.526588  -0.000128  15.273551   0.000307  13.869642   3.060563 -21.373105   3.312929  -7.763844 -11.480482  13.209085 -21.873648 -48.650473   0.000082 -22.056670   0.000305  13.150635  -4.956432  24.858042   8.882217  -9.023564  -6.444162  14.200699  -0.000088  -0.000138 -10.283721  -8.899750   2.381795  -1.965206  -0.000163  -0.000337   5.305678   9.211928  12.966320  15.392512  -0.000035  -0.000047 -10.265608  12.739762   2.108326   2.006752  -0.000001   0.000000
 -2.571638   0.904468   4.274590 -167.474785 -35.651875 -174.525768   6.430262  -0.212079  -0.412068   5.393811  -2.179013   1.101498  -1.391127  -0.801154   0.421889   3.149709   7.437498  10.772506  12.801132  17.027122  48.560300  -0.000144  15.182373   0.000319  13.870453   3.053226 -21.345100   3.309359  -7.752237 -11.500046  13.191339 -21.839851 -48.690485   0.000082 -22.013252   0.000326  13.143451  -4.943652  24.848617   8.942426  -9.042613  -6.494611  14.178747  -0.000082  -0.000129 -10.259132  -8.905177   2.379092  -2.045628  -0.000162  -0.000340   5.338639   9.152897  12.911045  15.363059  -0.000037  -0.000050 -10.267880  12.685717   2.116021   2.083950   0.000010  -0.000000
